<svg id="Layer_1" data-name="Layer 1" xmlns="http://www.w3.org/2000/svg" viewBox="0 0 444.52 113.99"><defs><style>.cls-1{fill:#222831;}</style></defs><path class="cls-1" d="M205.67,5.77c-.21,3.75-2.13,5.62-5.36,5.67s-5.4-1.95-5.43-5.19c0-3.43,1.92-5.6,5.58-5.5C203.85.84,205.43,2.88,205.67,5.77Z"/><path class="cls-1" d="M77.82,44c-.37,3.37-2.1,5.3-5.47,5.24-3.65-.06-5.46-2.24-5.28-5.73.18-3.34,2.39-5.09,5.63-4.94S77.65,40.82,77.82,44Z"/><path class="cls-1" d="M276.52,6.77c3.53.24,5.42,2.2,5.41,5.41a5,5,0,0,1-4.59,5.38,5.93,5.93,0,0,1-.73,0c-3.43,0-5.59-2-5.44-5.69C271.31,8.48,273.36,6.9,276.52,6.77Z"/><path class="cls-1" d="M377.11,55.73c.31-3,2.07-4.86,5.44-4.83a5,5,0,0,1,5.34,4.64c0,.22,0,.45,0,.67,0,3.48-2.22,5.67-5.71,5.46C379,61.49,377.12,59.45,377.11,55.73Z"/><path class="cls-1" d="M300.48,17c-.19,3.49-2.12,5.46-5.32,5.51-3.48.06-5.7-2.13-5.55-5.63.13-3.18,2.15-5.18,5.55-5.1S300.22,13.82,300.48,17Z"/><path class="cls-1" d="M125,15.75c3.4.19,5.41,1.78,5.55,5.18s-1.82,5.43-5,5.61c-3.49.2-5.75-1.93-5.76-5.42C119.78,17.92,121.77,16,125,15.75Z"/><path class="cls-1" d="M107.11,33.16c-3.5-.24-5.39-2.29-5.32-5.46s1.83-5.51,5.28-5.39,5.6,2.05,5.47,5.73C112.41,31.47,110.31,33,107.11,33.16Z"/><path class="cls-1" d="M405.5,64.17c-.27,3-1.95,5-5.34,5s-5.37-2-5.47-5.17c-.12-3.5,2.16-5.63,5.63-5.54C403.51,58.53,405.44,60.49,405.5,64.17Z"/><path class="cls-1" d="M364.7,42.74c3.45.14,5.56,1.64,5.74,5.06.19,3.66-2,5.7-5.37,5.76a5,5,0,0,1-5.4-4.56,4.7,4.7,0,0,1,0-.75C359.62,45.06,361.52,43.07,364.7,42.74Z"/><path class="cls-1" d="M167.66,11.09c-.29,3.72-2.34,5.54-5.52,5.5a5,5,0,0,1-5.29-4.7,5.3,5.3,0,0,1,0-.69c.06-3.48,2.13-5.52,5.75-5.35C166.05,6,167.47,8.19,167.66,11.09Z"/><path class="cls-1" d="M84.19,35.22c.26-3.22,2-5.16,5.35-5.21s5.4,2,5.47,5.2c.08,3.45-2.05,5.7-5.6,5.58C86.18,40.69,84.32,38.7,84.19,35.22Z"/><path class="cls-1" d="M418.38,76.22c-3.61,0-5.67-1.87-5.85-5.07-.2-3.53,2-5.7,5.48-5.7,3.2,0,5.29,2,5.33,5.34S421.46,75.91,418.38,76.22Z"/><path class="cls-1" d="M318.57,23.06c-.14,3.64-2,5.66-5.22,5.76-3.53.11-5.69-2.11-5.59-5.59.09-3.17,2.05-5.29,5.45-5.22S318.29,20,318.57,23.06Z"/><path class="cls-1" d="M138.19,15.24c.34-3.23,2.3-5.11,5.52-5.08a5,5,0,0,1,5.3,4.68,5.9,5.9,0,0,1,0,.73c-.05,3.41-2.17,5.6-5.79,5.39C139.9,20.76,138.26,18.68,138.19,15.24Z"/><path class="cls-1" d="M181.1,2.56c3.13.23,5.26,1.72,5.43,5.13s-1.65,5.39-4.94,5.62c-3.56.24-5.77-1.81-5.84-5.28C175.67,4.81,177.71,2.92,181.1,2.56Z"/><path class="cls-1" d="M330.63,36.27c-3.12-.27-5.2-2-5.22-5.3,0-3.59,2.24-5.57,5.7-5.44a5,5,0,0,1,5.15,4.85,4.33,4.33,0,0,1,0,.62C336.11,34.3,334.13,36.11,330.63,36.27Z"/><path class="cls-1" d="M9.12,92.16C5.69,92,3.63,90.26,3.49,87,3.34,83.42,5.6,81.33,9,81.36A5,5,0,0,1,14.31,86a5.77,5.77,0,0,1,0,.72C14.29,90,12.34,91.86,9.12,92.16Z"/><path class="cls-1" d="M39.61,69.08c-3.51-.38-5.46-2.09-5.49-5.44s2-5.38,5.18-5.44c3.48-.08,5.61,2.08,5.51,5.61C44.73,67.09,42.64,68.79,39.61,69.08Z"/><path class="cls-1" d="M353.43,39.28c-.23,3.33-1.89,5.46-5.18,5.62-3.57.16-5.72-2-5.72-5.45a5,5,0,0,1,4.62-5.35,4.57,4.57,0,0,1,.74,0C351.17,34.07,353,36.11,353.43,39.28Z"/><path class="cls-1" d="M219.34,0c3.33.34,5.41,2.15,5.45,5.37.05,3.45-2,5.67-5.58,5.54-3.26-.13-5.15-2.17-5.12-5.5S216.21.44,219.34,0Z"/><path class="cls-1" d="M50.27,53.32c.24-3.21,1.93-5.22,5.25-5.35a5,5,0,0,1,5.53,4.41,3.83,3.83,0,0,1,0,.68,5.06,5.06,0,0,1-5.46,5.69C52.45,58.72,50.5,56.76,50.27,53.32Z"/><path class="cls-1" d="M24,80.13c-3.31-.23-5.43-1.83-5.55-5.19-.12-3.6,2.08-5.69,5.5-5.66a5.08,5.08,0,0,1,5.33,4.8c0,.2,0,.41,0,.61C29.23,77.94,27.21,79.77,24,80.13Z"/><path class="cls-1" d="M256.46,14c-3.33.1-5-3-4.81-5.67a5.85,5.85,0,0,1,6.26-5.21c3,.14,5.21,2.09,5.13,5.08C263,11.66,261,14.07,256.46,14Z"/><path class="cls-1" d="M435.74,71.84c3.45.31,5.52,1.91,5.64,5.29s-1.88,5.41-5.06,5.58c-3.5.2-5.73-2-5.74-5.45C430.58,74,432.68,72.22,435.74,71.84Z"/><path class="cls-1" d="M233.23,6.52C233.4,3.28,235,1.2,238.32,1,241.93.82,244,3,244,6.39a5,5,0,0,1-4.66,5.32h-.66C235.49,11.76,233.57,9.83,233.23,6.52Z"/></svg>